:FULLY-SPECIFIED
:FORCE-ALL-JOINTS-BE-3DOF
:DEGREES
816
root -4.44283 14.7364 -40.2347 34.3497 -76.4841 -25.2453
lfemur -69.3699 15.8645 -21.2936
ltibia 78.8103 -0 0
lfoot -7.63532 7.69963 -0.200337
ltoes -15.2906 0 0
rfemur -31.5375 -5.53779 23.7208
rtibia 71.6466 -0 0
rfoot -32.5532 -27.5255 -0.00313446
rtoes -24.6819 0 0
lowerback 18.0836 1.11731 3.36069
upperback 0.598204 2.32756 2.51003
thorax -9.48411 0.981924 0.237143
lowerneck -1.96347 12.95 4.34467
upperneck -1.83742 17.2309 -9.95827
head 1.09647 8.5856 -3.47847
lclavicle -2.64384e-014 1.59028e-015 0
lhumerus 101.898 -33.8268 21.9884
lradius 93.9691 -0 0
lwrist 21.0777 0 0
lhand -9.06054 23.8309 0.0282459
lfingers 7.12502 -0 0
lthumb 16.8889 53.1328 0.0293131
rclavicle -2.64384e-014 1.59028e-015 0
rhumerus 23.0919 33.241 -59.1217
rradius 62.2966 -0 0
rwrist -12.6808 0 0
rhand -14.1259 -42.4524 -0.254426
rfingers 7.12502 -0 0
rthumb 12.0186 -72.1652 -0.272436
817
root -4.27594 14.7463 -40.2837 31.8422 -75.5366 -22.6115
lfemur -70.0953 16.9645 -22.6227
ltibia 81.4275 -0 0
lfoot -8.02052 8.21747 -0.150559
ltoes -15.6488 0 0
rfemur -32.1792 -6.65946 23.8097
rtibia 71.715 -0 0
rfoot -32.8694 -27.499 -0.00161299
rtoes -23.807 0 0
lowerback 18.1373 1.03317 3.32997
upperback 0.573571 2.21686 2.52813
thorax -9.547 0.930429 0.297958
lowerneck -2.01358 12.9709 4.31398
upperneck -1.82267 17.261 -10.0549
head 1.12089 8.59924 -3.50006
lclavicle -2.64384e-014 1.59028e-015 0
lhumerus 103.267 -33.9564 20.8711
lradius 96.2174 -0 0
lwrist 20.3732 0 0
lhand -9.21775 23.5764 0.0199627
lfingers 7.12502 -0 0
lthumb 16.7373 52.885 0.0205773
rclavicle -2.64384e-014 1.59028e-015 0
rhumerus 24.7856 34.8031 -58.0343
rradius 62.8652 -0 0
rwrist -11.8463 0 0
rhand -14.143 -42.1363 -0.207707
rfingers 7.12502 -0 0
rthumb 11.9999 -71.8357 -0.222066
818
root -4.10905 14.7562 -40.3327 29.7364 -74.6098 -20.4059
lfemur -70.6425 17.9543 -23.6735
ltibia 83.6109 -0 0
lfoot -8.28693 8.70744 -0.0990869
ltoes -15.8957 0 0
rfemur -32.7562 -7.67731 23.8808
rtibia 71.7688 -0 0
rfoot -33.1201 -27.4797 -0.000434913
rtoes -23.0292 0 0
lowerback 18.1837 0.965126 3.30335
upperback 0.547312 2.12759 2.54119
thorax -9.60659 0.888922 0.345922
lowerneck -2.06609 12.9813 4.29049
upperneck -1.78746 17.2782 -10.1302
head 1.14974 8.60593 -3.51594
lclavicle -2.64384e-014 1.59028e-015 0
lhumerus 104.358 -34.0955 19.8296
lradius 98.3455 -0 0
lwrist 19.7208 0 0
lhand -9.36054 23.376 0.0120562
lfingers 7.12502 -0 0
lthumb 16.5996 52.6912 0.0123379
rclavicle -2.64384e-014 1.59028e-015 0
rhumerus 26.389 36.2936 -56.9101
rradius 63.4725 -0 0
rwrist -10.9853 0 0
rhand -14.0742 -41.7694 -0.149559
rfingers 7.12502 -0 0
rthumb 12.0637 -71.4473 -0.159658
819
root -3.94216 14.7661 -40.3817 27.9593 -73.7164 -18.5583
lfemur -70.9721 18.8263 -24.3986
ltibia 85.2999 -0 0
lfoot -8.42037 9.16512 -0.0481455
ltoes -16.0173 0 0
rfemur -33.2598 -8.57415 23.9292
rtibia 71.8069 -0 0
rfoot -33.2977 -27.4696 0.000172958
rtoes -22.3641 0 0
lowerback 18.2221 0.915196 3.28174
upperback 0.519605 2.06252 2.54837
thorax -9.66221 0.858642 0.378945
lowerneck -2.12074 12.9809 4.27551
upperneck -1.7302 17.2819 -10.1825
head 1.18334 8.60539 -3.52582
lclavicle -2.64384e-014 1.59028e-015 0
lhumerus 105.144 -34.2568 18.8638
lradius 100.34 -0 0
lwrist 19.1427 0 0
lhand -9.48351 23.2361 0.00518359
lfingers 7.12502 -0 0
lthumb 16.4811 52.5577 0.00525879
rclavicle -2.64384e-014 1.59028e-015 0
rhumerus 27.8833 37.7025 -55.7631
rradius 64.1145 -0 0
rwrist -10.095 0 0
rhand -13.9132 -41.3488 -0.080148
rfingers 7.12502 -0 0
rthumb 12.2161 -70.9964 -0.0854327
